# xmcd
#
# Track frame offsets:
#	150
#	4057
#	16597
#	37465
#	52317
#	70390
#	103367
#	123782
#	142495
#	165230
#	184052
#	208217
#	229702
#	246380
#
# Disc length: 3900 seconds
#
# Revision: 1
# Processed by: cddbd v1.4PL0 Copyright (c) Steve Scherf et al.
# Submitted via: EasyCDDAExtractor 5.0.6
#
DISCID=d30f3a0e
DTITLE=Albert King -  Les Incontournables
DYEAR=1998
DGENRE=Blues
TTITLE0=San-Ho-Zay
TTITLE1=Born UNder A Bad Sign
TTITLE2=I Believe To My Soul
TTITLE3=You Threw Your Love On Me Too Strong 
TTITLE4=Honky Tonk Woman
TTITLE5=I'll Play The Blues For You
TTITLE6=Got To Be Some Changes Made
TTITLE7=I Wanna Get Funky
TTITLE8=Angel Of Mercy
TTITLE9=That's All Right 
TTITLE10=Cold Sweat
TTITLE11=Flat Tire
TTITLE12=# Can't You See What You're Doing To Me
TTITLE13=Blues Power 
EXTD=
EXTT0=
EXTT1=
EXTT2=
EXTT3=
EXTT4=
EXTT5=
EXTT6=
EXTT7=
EXTT8=
EXTT9=
EXTT10=
EXTT11=
EXTT12=
EXTT13=
PLAYORDER=
